<svg width="18" height="17" viewBox="0 0 18 17" fill="none" xmlns="http://www.w3.org/2000/svg">
<path d="M5.46875 3.6814C4.65625 3.6814 4 2.9939 4 2.1814C4 1.33765 4.59375 0.681396 5.46875 0.681396C6.3125 0.681396 6.9375 1.33765 6.9375 2.1814C6.9375 2.9939 6.28125 3.6814 5.46875 3.6814ZM16.6562 2.7439C16.9062 2.83765 17.0625 3.1189 16.9062 3.40015L15.5312 7.15015C15.4375 7.40015 15.1562 7.5564 14.9062 7.46265L12.7812 6.6814L11.3438 10.6501C11.25 10.9001 10.9688 11.0251 10.6875 10.9314L10.2188 10.7751C9.96875 10.6814 9.84375 10.4001 9.9375 10.1189L10.2812 9.1814L8.84375 8.6814C8.53125 8.58765 8.28125 8.4314 8.0625 8.21265L7.46875 7.58765V10.4314L8.75 12.9939C8.875 13.2751 8.96875 13.5876 8.96875 13.9001V15.6501C8.96875 16.2126 8.5 16.6501 7.96875 16.6501C7.4375 16.6501 7 16.2126 7 15.6501V13.9001L5.875 11.6501H5.375L4.96875 15.7751C4.9375 16.2751 4.5 16.6501 3.96875 16.6501C3.9375 16.6501 3.90625 16.6501 3.84375 16.6501C3.3125 16.6189 2.90625 16.1189 2.96875 15.5564L3.46875 10.6189V8.90015L2.84375 10.1189C2.6875 10.4626 2.3125 10.6501 1.96875 10.6501C1.84375 10.6501 1.6875 10.6189 1.53125 10.5564C1.03125 10.3064 0.84375 9.71265 1.09375 9.21265L2.8125 5.77515C3.15625 5.08765 3.84375 4.65015 4.59375 4.65015H6.5625C7.09375 4.65015 7.59375 4.8689 7.96875 5.2439L9.5 6.77515L11 7.27515L11.4062 6.1814L9.3125 5.40015C9.0625 5.3064 8.90625 5.02515 9 4.7439L10.375 0.993896C10.4688 0.743896 10.75 0.618896 11.0312 0.712646L13.125 1.46265L13.3125 0.993896C13.4062 0.743896 13.6875 0.618896 13.9375 0.681396L14.4062 0.868896C14.6562 0.962646 14.8125 1.2439 14.7188 1.4939L14.5312 1.9939L16.6562 2.7439Z" fill="#123BA8"/>
</svg>
