<svg width="500" height="500" viewBox="0 0 500 500" fill="none" xmlns="http://www.w3.org/2000/svg">
<g clip-path="url(#clip0_515_44777)">
<g clip-path="url(#clip1_515_44777)">
<g clip-path="url(#clip2_515_44777)">
<path d="M316.591 344.78C330.817 366.819 349.571 380.023 370.392 380.023C415.946 380.023 451.583 316.891 451.583 236.276C451.583 155.652 415.946 92.5193 370.392 92.5193C350.696 92.5193 332.848 104.336 318.935 124.271C284.495 140.993 244.232 156.398 203.2 163.15C176.406 167.547 149.265 170.312 123.138 170.312C103.106 170.312 84.9178 170.312 84.9178 170.312V170.384C84.3641 170.338 83.8076 170.312 83.2476 170.312C63.9748 170.312 48.4172 198.307 48.4172 232.849C48.4172 267.391 63.9748 295.386 83.2476 295.386C83.8076 295.386 84.3641 295.36 84.9178 295.313V295.386C84.9178 295.386 96.7304 295.386 114.698 295.386C119.591 323.109 132.858 398.288 133.237 400.636C133.702 403.506 135.676 407.481 139.54 407.481C143.409 407.481 181.124 407.481 185.315 407.481C189.5 407.481 189.822 403.237 189.289 400.866C188.859 398.986 175.344 327.4 169.764 297.83C181.253 299.076 193.067 300.749 205.015 302.74C242.926 309.176 282.206 326.051 316.591 344.78ZM370.392 356.387C342.628 356.387 312.819 308.154 312.819 236.276C312.819 164.417 342.628 116.184 370.392 116.184C398.157 116.184 427.932 164.417 427.932 236.276C427.932 308.155 398.157 356.387 370.392 356.387Z" fill="#FF6432"/>
</g>
</g>
</g>
<defs>
<clipPath id="clip0_515_44777">
<rect width="500" height="500" fill="white"/>
</clipPath>
<clipPath id="clip1_515_44777">
<rect width="500" height="500" fill="white"/>
</clipPath>
<clipPath id="clip2_515_44777">
<rect width="500" height="500" fill="white"/>
</clipPath>
</defs>
</svg>
