<svg width="18" height="21" viewBox="0 0 18 21" fill="none" xmlns="http://www.w3.org/2000/svg">
<path d="M5.46875 5.36859C4.65625 5.36859 4 4.68109 4 3.86859C4 3.02484 4.59375 2.36859 5.46875 2.36859C6.3125 2.36859 6.9375 3.02484 6.9375 3.86859C6.9375 4.68109 6.28125 5.36859 5.46875 5.36859ZM16.6562 4.43109C16.9062 4.52484 17.0625 4.80609 16.9062 5.08734L15.5312 8.83734C15.4375 9.08734 15.1562 9.24359 14.9062 9.14984L12.7812 8.36859L11.3438 12.3373C11.25 12.5873 10.9688 12.7123 10.6875 12.6186L10.2188 12.4623C9.96875 12.3686 9.84375 12.0873 9.9375 11.8061L10.2812 10.8686L8.84375 10.3686C8.53125 10.2748 8.28125 10.1186 8.0625 9.89984L7.46875 9.27484V12.1186L8.75 14.6811C8.875 14.9623 8.96875 15.2748 8.96875 15.5873V17.3373C8.96875 17.8998 8.5 18.3373 7.96875 18.3373C7.4375 18.3373 7 17.8998 7 17.3373V15.5873L5.875 13.3373H5.375L4.96875 17.4623C4.9375 17.9623 4.5 18.3373 3.96875 18.3373C3.9375 18.3373 3.90625 18.3373 3.84375 18.3373C3.3125 18.3061 2.90625 17.8061 2.96875 17.2436L3.46875 12.3061V10.5873L2.84375 11.8061C2.6875 12.1498 2.3125 12.3373 1.96875 12.3373C1.84375 12.3373 1.6875 12.3061 1.53125 12.2436C1.03125 11.9936 0.84375 11.3998 1.09375 10.8998L2.8125 7.46234C3.15625 6.77484 3.84375 6.33734 4.59375 6.33734H6.5625C7.09375 6.33734 7.59375 6.55609 7.96875 6.93109L9.5 8.46234L11 8.96234L11.4062 7.86859L9.3125 7.08734C9.0625 6.99359 8.90625 6.71234 9 6.43109L10.375 2.68109C10.4688 2.43109 10.75 2.30609 11.0312 2.39984L13.125 3.14984L13.3125 2.68109C13.4062 2.43109 13.6875 2.30609 13.9375 2.36859L14.4062 2.55609C14.6562 2.64984 14.8125 2.93109 14.7188 3.18109L14.5312 3.68109L16.6562 4.43109Z" fill="white"/>
</svg>
