<svg width="22" height="21" viewBox="0 0 22 21" fill="none" xmlns="http://www.w3.org/2000/svg">
<path d="M3.53125 3.55609C3.75 3.43109 3.96875 3.33734 4.25 3.33734H17.75C18.2188 3.33734 18.6562 3.61859 18.875 4.05609C19.0625 4.49359 19 5.02484 18.6875 5.39984L13.6875 11.5248L20.6875 17.0248C21.0312 17.2748 21.0938 17.7436 20.8125 18.0561C20.5625 18.3998 20.0938 18.4623 19.7812 18.1811L1.28125 3.68109C0.9375 3.43109 0.875 2.96234 1.15625 2.64984C1.40625 2.30609 1.875 2.24359 2.1875 2.52484L3.53125 3.55609ZM9 14.8373V11.6498L13 14.8061V16.3373C13 16.7436 12.7812 17.0873 12.4375 17.2436C12.0938 17.3998 11.6875 17.3686 11.375 17.1498L9.375 15.6498C9.125 15.4623 9 15.1811 9 14.8373Z" fill="white"/>
</svg>
