<svg width="20" height="21" viewBox="0 0 20 21" fill="none" xmlns="http://www.w3.org/2000/svg">
<g clip-path="url(#clip0_432_25674)">
<path d="M17.4538 8.16431C16.7768 8.78149 15.6679 8.24514 15.6468 8.2384C15.7454 8.43542 15.795 8.62907 15.795 8.81937C15.795 9.27026 15.5483 9.65378 15.0549 9.97122C15.0549 9.97122 15.9904 10.1245 16.8623 9.60116C17.3435 9.31278 17.5489 8.90736 17.5489 8.49183C17.5489 8.43542 17.535 8.36469 17.5068 8.28048L17.4538 8.16431Z" fill="#089848"/>
<path d="M17.2215 4.90362C17.9683 1.90821 11.4007 2.47446 12.1661 4.6085C12.1286 4.50453 11.2567 3.98878 10.515 5.1318C10.0026 5.9216 10.4265 6.64614 10.5747 6.86421C10.0038 7.08272 9.78827 8.01354 9.78827 8.58441C9.78827 9.28243 10.4316 10.3349 10.9443 10.6524C11.5826 11.0472 12.5858 11.1083 13.2485 10.5732C13.4678 10.713 13.5832 11.2106 13.6181 11.2813C13.6884 11.4434 13.856 13.0411 13.739 13.4351C13.5927 13.9262 13.2374 14.796 13.0886 15.1461H11.5633V15.1381C11.5605 15.1408 11.5578 15.1434 11.555 15.1461H11.5455L11.5451 15.1557C11.0195 15.6655 10.6428 15.9914 10.4173 16.1371C10.0199 16.3846 9.55504 16.508 9.01957 16.508C8.32532 16.508 7.57549 16.1682 6.76891 15.4863C6.6173 15.3831 6.32262 15.1242 6.32262 15.1242C5.62715 16.0369 4.85331 16.495 3.99915 16.495C3.22744 16.495 2.43596 16.1544 1.62345 15.4732C1.33041 15.2337 1.1755 15.112 1.15442 15.112L1.15949 16.9404C1.93584 17.9163 2.93276 18.4459 3.92546 18.4459C4.82892 18.4459 5.62713 18.0325 6.3226 17.2031C6.3226 17.2031 7.15282 17.8977 7.5048 18.0653C7.5048 18.0653 7.6701 18.1537 7.93893 18.2479C8.24827 18.3729 8.56536 18.4425 8.8908 18.457C8.9805 18.4647 9.07244 18.469 9.16603 18.469L9.15626 18.4569C9.63628 18.4361 10.0666 18.3054 10.4476 18.0653C10.8001 17.8382 11.1616 17.4877 11.5333 17.0119L17.482 17.0073V15.1461H15.8725C15.9115 14.6747 16.0046 13.1861 15.705 12.3856C15.4802 11.7832 15.3404 11.4578 15.3404 11.387C15.3404 11.3091 15.1518 10.9769 15.3619 10.9538C17.8328 10.681 18.1847 8.52466 18.2512 8.29226C18.7496 8.22574 19.68 5.20254 17.2215 4.90362ZM16.8623 9.60113C15.9905 10.1244 15.055 9.97119 15.055 9.97119C15.5484 9.65375 15.7951 9.27023 15.7951 8.81934C15.7951 8.62904 15.7454 8.43538 15.6469 8.23837C15.668 8.24511 16.7769 8.78146 17.4538 8.16428L17.5069 8.28047C17.5351 8.36468 17.549 8.43539 17.549 8.49182C17.549 8.90733 17.3435 9.31275 16.8623 9.60113Z" fill="#089848"/>
</g>
<defs>
<clipPath id="clip0_432_25674">
<rect width="20" height="20" fill="white" transform="translate(0 0.650146)"/>
</clipPath>
</defs>
</svg>
