<svg width="500" height="500" viewBox="0 0 500 500" fill="none" xmlns="http://www.w3.org/2000/svg">
<g clip-path="url(#clip0_515_44767)">
<g clip-path="url(#clip1_515_44767)">
<g clip-path="url(#clip2_515_44767)">
<path d="M311.022 70.7654C311.022 70.7654 288.581 90.7357 249.979 91.5107C211.379 90.7361 188.979 70.7654 188.979 70.7654L35.552 116.145L50.9325 201.174L113.462 193.5V429.235H249.675H250.288H386.511V193.5L449.073 201.174L464.448 116.145L311.022 70.7654ZM295.04 273.129C282.892 304.504 255.359 330.403 226.886 339.437C217.346 360.485 225.649 413.77 225.649 413.77L219.84 415.186C206.276 384.999 204.912 342.697 204.776 333.576C190.774 312.42 163.207 259.621 204.894 204.536C231.865 169.738 269.099 162 283.565 135.531C309.781 169.505 309.294 235.92 295.04 273.129Z" fill="#FF6432"/>
<path d="M210.317 307.366C213.286 321.362 232.531 322.694 226.473 293.519C222.859 276.088 229.327 222.4 272.635 176.65C212.853 219.451 208.731 289.122 210.317 307.366Z" fill="#FF6432"/>
</g>
</g>
</g>
<defs>
<clipPath id="clip0_515_44767">
<rect width="500" height="500" fill="white"/>
</clipPath>
<clipPath id="clip1_515_44767">
<rect width="500" height="500" fill="white"/>
</clipPath>
<clipPath id="clip2_515_44767">
<rect width="500" height="500" fill="white"/>
</clipPath>
</defs>
</svg>
