<svg width="16" height="21" viewBox="0 0 16 21" fill="none" xmlns="http://www.w3.org/2000/svg">
<path d="M2.25 3.83734C2.65625 3.83734 3 4.18109 3 4.58734V6.08734C3 6.52484 2.65625 6.83734 2.25 6.83734V9.58734H4C4 9.18109 4.3125 8.83734 4.75 8.83734H6.25C6.65625 8.83734 7 9.18109 7 9.58734V11.0873C7 11.5248 6.65625 11.8373 6.25 11.8373H4.75C4.3125 11.8373 4 11.5248 4 11.0873H2.25V14.3373C2.25 14.4936 2.34375 14.5873 2.5 14.5873H4C4 14.1811 4.3125 13.8373 4.75 13.8373H6.25C6.65625 13.8373 7 14.1811 7 14.5873V16.0873C7 16.5248 6.65625 16.8373 6.25 16.8373H4.75C4.3125 16.8373 4 16.5248 4 16.0873H2.5C1.53125 16.0873 0.75 15.3061 0.75 14.3373V6.83734C0.3125 6.83734 0 6.52484 0 6.08734V4.58734C0 4.18109 0.3125 3.83734 0.75 3.83734H2.25ZM5 5.33734C5 4.80609 5.4375 4.33734 6 4.33734H15C15.5312 4.33734 16 4.80609 16 5.33734C16 5.89984 15.5312 6.33734 15 6.33734H6C5.4375 6.33734 5 5.89984 5 5.33734ZM9 10.3373C9 9.80609 9.4375 9.33734 10 9.33734H15C15.5312 9.33734 16 9.80609 16 10.3373C16 10.8998 15.5312 11.3373 15 11.3373H10C9.4375 11.3373 9 10.8998 9 10.3373ZM9 15.3373C9 14.8061 9.4375 14.3373 10 14.3373H15C15.5312 14.3373 16 14.8061 16 15.3373C16 15.8998 15.5312 16.3373 15 16.3373H10C9.4375 16.3373 9 15.8998 9 15.3373Z" fill="white"/>
</svg>
