<svg width="16" height="14" viewBox="0 0 16 14" fill="none" xmlns="http://www.w3.org/2000/svg">
<path d="M2.25 0.150146C2.65625 0.150146 3 0.493896 3 0.900146V2.40015C3 2.83765 2.65625 3.15015 2.25 3.15015V5.90015H4C4 5.4939 4.3125 5.15015 4.75 5.15015H6.25C6.65625 5.15015 7 5.4939 7 5.90015V7.40015C7 7.83765 6.65625 8.15015 6.25 8.15015H4.75C4.3125 8.15015 4 7.83765 4 7.40015H2.25V10.6501C2.25 10.8064 2.34375 10.9001 2.5 10.9001H4C4 10.4939 4.3125 10.1501 4.75 10.1501H6.25C6.65625 10.1501 7 10.4939 7 10.9001V12.4001C7 12.8376 6.65625 13.1501 6.25 13.1501H4.75C4.3125 13.1501 4 12.8376 4 12.4001H2.5C1.53125 12.4001 0.75 11.6189 0.75 10.6501V3.15015C0.3125 3.15015 0 2.83765 0 2.40015V0.900146C0 0.493896 0.3125 0.150146 0.75 0.150146H2.25ZM5 1.65015C5 1.1189 5.4375 0.650146 6 0.650146H15C15.5312 0.650146 16 1.1189 16 1.65015C16 2.21265 15.5312 2.65015 15 2.65015H6C5.4375 2.65015 5 2.21265 5 1.65015ZM9 6.65015C9 6.1189 9.4375 5.65015 10 5.65015H15C15.5312 5.65015 16 6.1189 16 6.65015C16 7.21265 15.5312 7.65015 15 7.65015H10C9.4375 7.65015 9 7.21265 9 6.65015ZM9 11.6501C9 11.1189 9.4375 10.6501 10 10.6501H15C15.5312 10.6501 16 11.1189 16 11.6501C16 12.2126 15.5312 12.6501 15 12.6501H10C9.4375 12.6501 9 12.2126 9 11.6501Z" fill="#123BA8"/>
</svg>
