<svg width="18" height="21" viewBox="0 0 18 21" fill="none" xmlns="http://www.w3.org/2000/svg">
<path d="M6.5 4.83734C6.5 4.02484 7.15625 3.33734 8 3.33734H10C10.8125 3.33734 11.5 4.02484 11.5 4.83734V6.83734C11.5 7.68109 10.8125 8.33734 10 8.33734H9.75V9.58734H14.5C15.4375 9.58734 16.25 10.3998 16.25 11.3373V12.3373H16.5C17.3125 12.3373 18 13.0248 18 13.8373V15.8373C18 16.6811 17.3125 17.3373 16.5 17.3373H14.5C13.6562 17.3373 13 16.6811 13 15.8373V13.8373C13 13.0248 13.6562 12.3373 14.5 12.3373H14.75V11.3373C14.75 11.2123 14.625 11.0873 14.5 11.0873H9.75V12.3373H10C10.8125 12.3373 11.5 13.0248 11.5 13.8373V15.8373C11.5 16.6811 10.8125 17.3373 10 17.3373H8C7.15625 17.3373 6.5 16.6811 6.5 15.8373V13.8373C6.5 13.0248 7.15625 12.3373 8 12.3373H8.25V11.0873H3.5C3.34375 11.0873 3.25 11.2123 3.25 11.3373V12.3373H3.5C4.3125 12.3373 5 13.0248 5 13.8373V15.8373C5 16.6811 4.3125 17.3373 3.5 17.3373H1.5C0.65625 17.3373 0 16.6811 0 15.8373V13.8373C0 13.0248 0.65625 12.3373 1.5 12.3373H1.75V11.3373C1.75 10.3998 2.53125 9.58734 3.5 9.58734H8.25V8.33734H8C7.15625 8.33734 6.5 7.68109 6.5 6.83734V4.83734Z" fill="white"/>
</svg>
