<svg width="15" height="17" viewBox="0 0 15 17" fill="none" xmlns="http://www.w3.org/2000/svg">
<path d="M14 3.65015C14.5312 3.65015 15 4.1189 15 4.65015V11.1501C15 14.2126 12.5312 16.6501 9.5 16.6501H8.3125C6.625 16.6501 5.0625 16.0251 3.875 14.8376L0.34375 11.3064C0.09375 11.0564 0 10.7439 0 10.4001C0 9.71265 0.5625 9.15015 1.25 9.15015C1.5625 9.15015 1.875 9.27515 2.125 9.52515L4 11.4001V2.65015C4 2.1189 4.4375 1.65015 5 1.65015C5.53125 1.65015 6 2.1189 6 2.65015V8.15015C6 8.4314 6.21875 8.65015 6.5 8.65015C6.75 8.65015 7 8.4314 7 8.15015V1.65015C7 1.1189 7.4375 0.650146 8 0.650146C8.53125 0.650146 9 1.1189 9 1.65015V8.15015C9 8.4314 9.21875 8.65015 9.46875 8.65015C9.75 8.65015 10 8.4314 10 8.15015V2.65015C10 2.1189 10.4375 1.65015 11 1.65015C11.5312 1.65015 12 2.1189 12 2.65015V8.15015C12 8.4314 12.2188 8.65015 12.5 8.65015C12.75 8.65015 13 8.4314 13 8.15015V4.65015C13 4.1189 13.4375 3.65015 14 3.65015ZM11.9688 11.9001C11.9688 11.4939 11.6562 10.6501 10.6562 10.6814C10.2812 10.6814 9.90625 10.8064 9.65625 11.0564L9.46875 11.2439L9.25 11.0564C9 10.8064 8.625 10.6814 8.25 10.6814C7.28125 10.6814 6.96875 11.4939 6.96875 11.9001C6.96875 12.2439 7.09375 12.5564 7.34375 12.8064L9.25 14.5876C9.28125 14.6501 9.375 14.6814 9.46875 14.6814C9.53125 14.6814 9.625 14.6501 9.6875 14.5876L11.5625 12.8064C11.8125 12.5564 11.9688 12.2439 11.9688 11.9001Z" fill="#123BA8"/>
</svg>
