<svg width="16" height="10" viewBox="0 0 16 10" fill="none" xmlns="http://www.w3.org/2000/svg">
<path fill-rule="evenodd" clip-rule="evenodd" d="M0.5 0.9375C0.5 0.419733 0.919733 0 1.4375 0H14.5625C15.0803 0 15.5 0.419733 15.5 0.9375C15.5 1.45527 15.0803 1.875 14.5625 1.875H1.4375C0.919733 1.875 0.5 1.45527 0.5 0.9375Z" fill="#1F1F1F"/>
<path fill-rule="evenodd" clip-rule="evenodd" d="M0.5 5C0.5 4.48223 0.919733 4.0625 1.4375 4.0625H14.5625C15.0803 4.0625 15.5 4.48223 15.5 5C15.5 5.51777 15.0803 5.9375 14.5625 5.9375H1.4375C0.919733 5.9375 0.5 5.51777 0.5 5Z" fill="#1F1F1F"/>
<path fill-rule="evenodd" clip-rule="evenodd" d="M0.5 9.0625C0.5 8.54473 0.919733 8.125 1.4375 8.125H14.5625C15.0803 8.125 15.5 8.54473 15.5 9.0625C15.5 9.58027 15.0803 10 14.5625 10H1.4375C0.919733 10 0.5 9.58027 0.5 9.0625Z" fill="#1F1F1F"/>
</svg>
