<svg width="21" height="22" viewBox="0 0 21 22" fill="none" xmlns="http://www.w3.org/2000/svg">
<path d="M20.2969 7.4375C20.2969 7.4375 20.2969 10.7656 19.875 13.1094C19.5469 14.6094 17.25 16.2031 14.625 16.5312C13.6875 16.625 10.2656 17.1875 6.28125 16.2031C6.28125 16.4375 6.28125 16.6719 6.28125 16.8594C6.60938 19.2031 8.625 19.3438 10.5 19.3906C12.4219 19.4844 14.1094 18.9219 14.1094 18.9219L14.2031 20.6562C14.2031 20.6562 12.8438 21.3594 10.5 21.5C9.1875 21.5938 7.54688 21.4531 5.625 20.9844C0.375 19.5781 0.703125 12.8281 0.703125 7.4375C0.703125 2.84375 3.65625 1.53125 3.65625 1.53125C6.5625 0.21875 14.3438 0.171875 17.2969 1.53125C17.2969 1.53125 20.2969 2.84375 20.2969 7.4375ZM16.7344 13.2969C16.7344 7.57812 17.0156 6.35938 15.8906 5.09375C14.6719 3.73438 12.1406 3.64062 11.0156 5.375L10.5 6.26562L9.9375 5.375C8.8125 3.64062 6.28125 3.73438 5.0625 5.09375C3.9375 6.35938 4.21875 7.57812 4.21875 13.2969H6.375V7.95312C6.375 5.60938 9.375 5.51562 9.375 8.23438V11.1875H11.5781V8.28125C11.5781 5.51562 14.5781 5.60938 14.5781 7.95312V13.2969H16.7344Z" fill="white"/>
</svg>
