<svg width="19" height="17" viewBox="0 0 19 17" fill="none" xmlns="http://www.w3.org/2000/svg">
<path d="M17.75 5.5C18.0625 5.78125 18.0625 6.25 17.75 6.5L13.0625 10.8125C12.625 11.1875 12 10.9062 12 10.3125V8C8 8 5.8125 8.90625 7.09375 12.9062C7.21875 13.3438 6.6875 13.6875 6.3125 13.4062C5.09375 12.5312 4 10.8438 4 9.15625C4 4.96875 7.53125 4.0625 12 4V1.6875C12 1.125 12.625 0.8125 13.0625 1.1875L17.75 5.5ZM13 13C13.5312 13 14 13.4688 14 14V15C14 16.0938 13.0938 17 12 17H2C0.875 17 0 16.0938 0 15V5C0 3.90625 0.875 3 2 3H3C3.53125 3 4 3.46875 4 4C4 4.5625 3.53125 5 3 5H2V15H12V14C12 13.4688 12.4375 13 13 13Z" fill="white"/>
</svg>
